<svg xmlns="http://www.w3.org/2000/svg" width="21" height="22" fill="none" viewBox="0 0 21 22"><path fill="#666665" d="M0.573608 0.890625V21.3171H21V0.890625H0.573608ZM10.8344 12.4298C10.7054 12.8729 10.5007 13.2534 10.2262 13.5618C9.94732 13.8724 9.59133 14.111 9.16834 14.2717C8.75398 14.4287 8.26109 14.5087 7.70261 14.5087H5.24965V7.69968H7.70261C8.74678 7.69968 9.56972 7.97279 10.1469 8.51037C10.7292 9.05299 11.0246 9.8752 11.0246 10.9554C11.0239 11.5016 10.9605 11.9974 10.8344 12.4298ZM16.3247 8.90814L12.6583 13.3031H16.3247V14.5087H11.0311V13.2988L14.6529 8.90814H11.0333V7.69968H16.3247V8.90814Z"/></svg>