<svg width="23" height="13" viewBox="0 0 23 13" fill="none" xmlns="http://www.w3.org/2000/svg">
<path d="M2.85968 1.09256C2.35852 0.617771 1.56735 0.639153 1.09256 1.14032C0.617771 1.64148 0.639153 2.43265 1.14032 2.90744L2.85968 1.09256ZM11.5 11L10.6403 11.9074L11.5 12.7219L12.3597 11.9074L11.5 11ZM21.8597 2.90744C22.3608 2.43265 22.3822 1.64148 21.9074 1.14032C21.4327 0.639153 20.6415 0.617771 20.1403 1.09256L21.8597 2.90744ZM1.14032 2.90744L10.6403 11.9074L12.3597 10.0926L2.85968 1.09256L1.14032 2.90744ZM12.3597 11.9074L21.8597 2.90744L20.1403 1.09256L10.6403 10.0926L12.3597 11.9074Z" fill="#38C1C9"/>
</svg>
