<svg width="19" height="32" viewBox="0 0 19 32" fill="none" xmlns="http://www.w3.org/2000/svg">
<path d="M0.58579 28.0858C-0.195259 28.8668 -0.195259 30.1332 0.58579 30.9142C1.36684 31.6953 2.63317 31.6953 3.41422 30.9142L0.58579 28.0858ZM15.5 16L16.9142 17.4142L18.3284 16L16.9142 14.5858L15.5 16ZM3.41421 1.08579C2.63316 0.304739 1.36683 0.304739 0.585786 1.08579C-0.195263 1.86684 -0.195262 3.13317 0.585786 3.91422L3.41421 1.08579ZM3.41422 30.9142L16.9142 17.4142L14.0858 14.5858L0.58579 28.0858L3.41422 30.9142ZM16.9142 14.5858L3.41421 1.08579L0.585786 3.91422L14.0858 17.4142L16.9142 14.5858Z" fill="white"/>
</svg>
