<svg xmlns="http://www.w3.org/2000/svg" width="19" height="32" fill="none" viewBox="0 0 19 32"><path fill="#fff" d="M17.9142 3.91421C18.6953 3.13317 18.6953 1.86684 17.9142 1.08579C17.1332 0.304738 15.8668 0.304738 15.0858 1.08579L17.9142 3.91421ZM3 16L1.58578 14.5858L0.171569 16L1.58578 17.4142L3 16ZM15.0858 30.9142C15.8668 31.6953 17.1332 31.6953 17.9142 30.9142C18.6953 30.1332 18.6953 28.8668 17.9142 28.0858L15.0858 30.9142ZM15.0858 1.08579L1.58578 14.5858L4.41421 17.4142L17.9142 3.91421L15.0858 1.08579ZM1.58578 17.4142L15.0858 30.9142L17.9142 28.0858L4.41421 14.5858L1.58578 17.4142Z"/></svg>