<svg width="21" height="17" viewBox="0 0 21 17" fill="none" xmlns="http://www.w3.org/2000/svg">
<path d="M21 2.01213C20.2281 2.35269 19.3967 2.5839 18.5244 2.68701C19.4155 2.15585 20.0964 1.31538 20.4195 0.312443C19.5849 0.802977 18.6656 1.16229 17.6835 1.35288C16.8991 0.521779 15.779 0 14.5365 0C12.1551 0 10.2286 1.92152 10.2286 4.28984C10.2286 4.62727 10.2662 4.95534 10.3384 5.26778C6.7584 5.08969 3.58315 3.38063 1.45899 0.784231C1.08875 1.41849 0.875392 2.15585 0.875392 2.94321C0.875392 4.43356 1.63783 5.74582 2.79247 6.51443C2.08651 6.49256 1.42134 6.29884 0.840879 5.97703C0.840879 5.99577 0.840879 6.01452 0.840879 6.03014C0.840879 8.11101 2.32497 9.84507 4.29852 10.2387C3.9377 10.3356 3.55805 10.3887 3.16271 10.3887C2.88346 10.3887 2.61363 10.3606 2.3532 10.3137C2.90229 12.0165 4.49305 13.2569 6.37875 13.2944C4.90408 14.4442 3.04662 15.1316 1.02913 15.1316C0.680861 15.1316 0.338861 15.1128 0 15.0722C1.90766 16.2876 4.17302 17 6.60466 17C14.5303 17 18.8664 10.4606 18.8664 4.78974C18.8664 4.6054 18.8602 4.41794 18.8539 4.2336C19.6916 3.62746 20.4227 2.87447 21 2.01213Z" fill="#656666"/>
</svg>
